Coordinates
nRows=4
nColumns=38

# SIMM Motion File Header:
name Coordinates
datacolumns 38
datarows 4
otherdata 1
range 0.63350000000000006000 0.63650000000000007000

Units are S.I. units (second, meters, Newtons, ...)
Angles are in degrees.

endheader
time	pelvis_tilt	pelvis_list	pelvis_rotation	pelvis_tx	pelvis_ty	pelvis_tz	hip_flexion_r	hip_adduction_r	hip_rotation_r	knee_angle_r	ankle_angle_r	subtalar_angle_r	mtp_angle_r	hip_flexion_l	hip_adduction_l	hip_rotation_l	knee_angle_l	ankle_angle_l	subtalar_angle_l	mtp_angle_l	lumbar_extension	lumbar_bending	lumbar_rotation	arm_flex_r	arm_add_r	arm_rot_r	elbow_flex_r	pro_sup_r	wrist_flex_r	wrist_dev_r	arm_flex_l	arm_add_l	arm_rot_l	elbow_flex_l	pro_sup_l	wrist_flex_l	wrist_dev_l
      0.63350000000000006000	     -4.26623169730388340000	     -2.35086183283566810000	     -0.66074047523822943000	      0.92236548357357029000	      0.99966867165218598000	     -0.30820110479802287000	      2.59667379534394180000	     11.57086693844718900000	     10.40574306933589500000	    -31.15088929000930300000	     22.82061011441873800000	     -0.00000000000000717901	     -0.00000000000003366710	     35.79471589841832500000	      2.21256223769802900000	      4.90240558987300370000	    -89.10865941466646200000	      1.10862053218895440000	     -0.00000000000000815429	     -0.00000000000001054488	     -7.19637413297352340000	      7.01554050194951540000	     11.63056198607029200000	    -16.52027852940999300000	    -17.65066993190214700000	     -3.06091581002069150000	    116.19552715684372000000	     69.31300563251542700000	      0.00000000000000050708	      0.00000000000000133581	    -28.67524673705764500000	    -19.81201018053616600000	      2.67106727087482200000	    120.23440488715758000000	     91.20058287272304700000	      0.00000000000001445788	     -0.00000000000000278952
      0.63450000000000006000	     -4.30251578707099560000	     -2.30316210538837840000	     -0.64279267425034581000	      0.92259992100751975000	      1.00026873538132840000	     -0.30828923846203371000	      2.27840382563390430000	     11.47133169853780500000	     10.44335861319932100000	    -30.83055006417899300000	     22.46980602455944600000	     -0.00000000000000700816	     -0.00000000000003415647	     35.93411362382190100000	      2.28142877944288180000	      4.92932394327363270000	    -88.77806460040153500000	      1.13319539106911700000	     -0.00000000000000828067	     -0.00000000000001066132	     -7.11323809062410730000	      6.96982586598415570000	     11.70556862100611400000	    -16.52505091292129400000	    -17.67120267410848200000	     -2.97165324081706350000	    116.44853866657431000000	     69.15580017550523500000	      0.00000000000000050011	      0.00000000000000148582	    -28.84813435302886100000	    -19.78848191625231900000	      2.64035088513233740000	    120.34715258266660000000	     91.10330307582508200000	      0.00000000000001463970	     -0.00000000000000280490
      0.63550000000000006000	     -4.33846969382851370000	     -2.25457670258999430000	     -0.62377316867035715000	      0.92284050066406065000	      1.00087568938059680000	     -0.30838144747970730000	      1.96020881792818220000	     11.36969908524691800000	     10.47781063747902200000	    -30.50878884918483200000	     22.10820435287107300000	     -0.00000000000000676623	     -0.00000000000003463356	     36.06931786347407600000	      2.35189929493169240000	      4.95633021283592700000	    -88.44087491844479100000	      1.15742310767014580000	     -0.00000000000000841516	     -0.00000000000001079658	     -7.02966894817402380000	      6.92344978818295510000	     11.77780641631991200000	    -16.53037026412324200000	    -17.69130435001467200000	     -2.88060690605286540000	    116.70092261244849000000	     69.00074984035946100000	      0.00000000000000049250	      0.00000000000000166976	    -29.02302794141278100000	    -19.76276949621862400000	      2.60722705562596340000	    120.45902434446670000000	     91.00658649545509600000	      0.00000000000001481347	     -0.00000000000000282172
      0.63650000000000007000	     -4.37407875412179960000	     -2.20508226062729260000	     -0.60366628739816397000	      0.92308701411546501000	      1.00148934913169980000	     -0.30847771771182880000	      1.64216350786407220000	     11.26595807851451900000	     10.50891235028063900000	    -30.18568933565931500000	     21.73584197448565200000	     -0.00000000000000649436	     -0.00000000000003511610	     36.20032773025267400000	      2.42399409584125180000	      4.98343366009543230000	    -88.09711105867039300000	      1.18121464362940200000	     -0.00000000000000856080	     -0.00000000000001095658	     -6.94572982761295150000	      6.87637223822264070000	     11.84727678144993000000	    -16.53621786935703500000	    -17.71092341168137100000	     -2.78787611521688120000	    116.95264023604571000000	     68.84802101798331400000	      0.00000000000000048415	      0.00000000000000186080	    -29.19985317846896700000	    -19.73487542840377500000	      2.57172009183893340000	    120.56998206893101000000	     90.91047047085234600000	      0.00000000000001498814	     -0.00000000000000283792
